<?xml version="1.0" encoding="UTF-8" standalone="no"?><!DOCTYPE svg PUBLIC "-//W3C//DTD SVG 1.1//EN" "http://www.w3.org/Graphics/SVG/1.1/DTD/svg11.dtd"><svg width="100%" height="100%" viewBox="0 0 1575 437" version="1.1" xmlns="http://www.w3.org/2000/svg" xmlns:xlink="http://www.w3.org/1999/xlink" xml:space="preserve" xmlns:serif="http://www.serif.com/" style="fill-rule:evenodd;clip-rule:evenodd;stroke-linecap:round;stroke-linejoin:round;stroke-miterlimit:1.5;"><g><path d="M136.95,330.69l107.546,-33.324" style="fill:none;stroke:#f88c00;stroke-width:9.47px;"/><path d="M29.404,297.366l107.546,109.061" style="fill:none;stroke:#f88c00;stroke-width:9.47px;"/><path d="M29.404,217.085l107.546,37.868" style="fill:none;stroke:#f88c00;stroke-width:9.47px;"/><path d="M29.404,136.804l107.546,-33.324" style="fill:none;stroke:#f88c00;stroke-width:9.47px;"/><path d="M136.95,179.217l107.546,37.868" style="fill:none;stroke:#f88c00;stroke-width:9.47px;"/><path d="M136.95,27.743c-0,0 107.512,109.085 107.546,109.061" style="fill:none;stroke:#f88c00;stroke-width:9.47px;"/><text x="297.237px" y="380.445px" style="font-family:'PingFangSC-Thin', 'PingFang SC', sans-serif;font-weight:200;font-size:454.716px;fill:#2588f7;">GUNC</text><circle cx="244.496" cy="217.085" r="26.836" style="fill:#389cf4;"/><circle cx="244.496" cy="297.366" r="26.836" style="fill:#389cf4;"/><circle cx="244.496" cy="136.804" r="26.836" style="fill:#389cf4;"/><circle cx="136.95" cy="254.953" r="26.836" style="fill:#c4514b;"/><circle cx="136.95" cy="179.217" r="26.836" style="fill:#389cf4;"/><circle cx="136.95" cy="406.427" r="26.836" style="fill:#c4514b;"/><circle cx="136.95" cy="330.69" r="26.836" style="fill:#389cf4;"/><circle cx="136.95" cy="103.48" r="26.836" style="fill:#c4514b;"/><circle cx="136.95" cy="27.743" r="26.836" style="fill:#389cf4;"/><circle cx="29.404" cy="217.085" r="26.836" style="fill:#c4514b;"/><circle cx="29.404" cy="297.366" r="26.836" style="fill:#c4514b;"/><circle cx="29.404" cy="136.804" r="26.836" style="fill:#c4514b;"/></g></svg>